<mxfile host="app.diagrams.net" agent="Mozilla/5.0 (Macintosh; Intel Mac OS X 10_15_7) AppleWebKit/537.36 (KHTML, like Gecko) Chrome/129.0.0.0 Safari/537.36" version="24.8.0">
  <diagram name="Page-1" id="3L_6Cly4k-G31ASBRX2q">
    <mxGraphModel dx="1230" dy="780" grid="1" gridSize="10" guides="1" tooltips="1" connect="1" arrows="1" fold="1" page="1" pageScale="1" pageWidth="827" pageHeight="1169" math="0" shadow="0">
      <root>
        <mxCell id="0" />
        <mxCell id="1" parent="0" />
        <mxCell id="BKxvgIfMH9eWLPwgE7mu-2" value="&lt;font style=&quot;font-size: 24px;&quot;&gt;1) Patient ( Name, &lt;u&gt;ID&lt;/u&gt;, DOB,&amp;nbsp;&lt;span style=&quot;color: rgb(255, 0, 0);&quot;&gt;ID_ward_Fk&lt;/span&gt;,&amp;nbsp;&lt;font style=&quot;&quot; color=&quot;#ff0000&quot;&gt;ID_Con_FK&lt;/font&gt;&amp;nbsp;)&amp;nbsp;&lt;/font&gt;" style="text;html=1;align=left;verticalAlign=middle;resizable=0;points=[];autosize=1;strokeColor=none;fillColor=none;" vertex="1" parent="1">
          <mxGeometry width="620" height="40" as="geometry" />
        </mxCell>
        <mxCell id="BKxvgIfMH9eWLPwgE7mu-4" value="&lt;font style=&quot;font-size: 24px;&quot;&gt;3) Consultant ( Name, &lt;u&gt;ID&lt;/u&gt; )&amp;nbsp;&lt;/font&gt;" style="text;html=1;align=left;verticalAlign=middle;resizable=0;points=[];autosize=1;strokeColor=none;fillColor=none;" vertex="1" parent="1">
          <mxGeometry y="160" width="310" height="40" as="geometry" />
        </mxCell>
        <mxCell id="BKxvgIfMH9eWLPwgE7mu-5" value="&lt;font style=&quot;font-size: 24px;&quot;&gt;4) Nurse ( Name, &lt;u&gt;ID&lt;/u&gt;, &lt;font color=&quot;#ff0000&quot;&gt;ID_ward_Fk&lt;/font&gt; )&amp;nbsp;&lt;/font&gt;" style="text;html=1;align=left;verticalAlign=middle;resizable=0;points=[];autosize=1;strokeColor=none;fillColor=none;" vertex="1" parent="1">
          <mxGeometry y="240" width="400" height="40" as="geometry" />
        </mxCell>
        <mxCell id="BKxvgIfMH9eWLPwgE7mu-6" value="&lt;font style=&quot;font-size: 24px;&quot;&gt;5) Drugs ( Rec, Dosage, &lt;u&gt;Code&lt;/u&gt; )&lt;/font&gt;" style="text;html=1;align=left;verticalAlign=middle;resizable=0;points=[];autosize=1;strokeColor=none;fillColor=none;" vertex="1" parent="1">
          <mxGeometry y="320" width="360" height="40" as="geometry" />
        </mxCell>
        <mxCell id="BKxvgIfMH9eWLPwgE7mu-7" value="&lt;font style=&quot;font-size: 24px;&quot;&gt;6) Drugs_Brands ( &lt;u&gt;Brand, &lt;font color=&quot;#ff0000&quot;&gt;Code_Fk&lt;/font&gt;&lt;/u&gt;&amp;nbsp;)&amp;nbsp;&lt;/font&gt;" style="text;html=1;align=left;verticalAlign=middle;resizable=0;points=[];autosize=1;strokeColor=none;fillColor=none;" vertex="1" parent="1">
          <mxGeometry y="400" width="420" height="40" as="geometry" />
        </mxCell>
        <mxCell id="BKxvgIfMH9eWLPwgE7mu-8" value="&lt;font style=&quot;font-size: 24px;&quot;&gt;7) Patient_Consultant ( &lt;u&gt;&lt;font color=&quot;#ff0000&quot; style=&quot;&quot;&gt;ID_pa_Fk&lt;/font&gt;,&amp;nbsp;&lt;font color=&quot;#ff0000&quot;&gt;ID_Con_FK&lt;/font&gt;&lt;/u&gt;&lt;font style=&quot;&quot; color=&quot;#ff0000&quot;&gt;&amp;nbsp;&lt;/font&gt;)&amp;nbsp;&lt;/font&gt;" style="text;html=1;align=left;verticalAlign=middle;resizable=0;points=[];autosize=1;strokeColor=none;fillColor=none;" vertex="1" parent="1">
          <mxGeometry y="480" width="540" height="40" as="geometry" />
        </mxCell>
        <mxCell id="BKxvgIfMH9eWLPwgE7mu-9" value="&lt;font style=&quot;font-size: 24px;&quot;&gt;8) Patient_Drugs (&amp;nbsp;&lt;u&gt;&lt;font style=&quot;&quot; color=&quot;#ff0000&quot;&gt;ID_pa_Fk&lt;/font&gt;, &lt;font color=&quot;#ff0000&quot;&gt;ID_Code_FK&lt;/font&gt;&lt;/u&gt;, date, time, Dosage)&amp;nbsp;&lt;/font&gt;" style="text;html=1;align=left;verticalAlign=middle;resizable=0;points=[];autosize=1;strokeColor=none;fillColor=none;" vertex="1" parent="1">
          <mxGeometry y="564.5" width="710" height="40" as="geometry" />
        </mxCell>
        <mxCell id="BKxvgIfMH9eWLPwgE7mu-11" value="&lt;font style=&quot;font-size: 24px;&quot;&gt;2) Wars ( Name, &lt;u&gt;ID&lt;/u&gt;, &lt;font color=&quot;#ff0000&quot;&gt;ID_Nurse_Fk&lt;/font&gt;&amp;nbsp;)&amp;nbsp;&lt;/font&gt;" style="text;html=1;align=left;verticalAlign=middle;resizable=0;points=[];autosize=1;strokeColor=none;fillColor=none;" vertex="1" parent="1">
          <mxGeometry y="80" width="410" height="40" as="geometry" />
        </mxCell>
        <mxCell id="BKxvgIfMH9eWLPwgE7mu-12" value="&lt;font style=&quot;font-size: 24px;&quot;&gt;9) Patient_Nurse (&amp;nbsp;&lt;u&gt;&lt;font style=&quot;&quot; color=&quot;#ff0000&quot;&gt;ID_pa_Fk&lt;/font&gt;, &lt;font color=&quot;#ff0000&quot;&gt;ID_Nurse_FK&lt;/font&gt;&lt;/u&gt;, date, time, Dosage)&amp;nbsp;&lt;/font&gt;" style="text;html=1;align=left;verticalAlign=middle;resizable=0;points=[];autosize=1;strokeColor=none;fillColor=none;" vertex="1" parent="1">
          <mxGeometry y="640" width="720" height="40" as="geometry" />
        </mxCell>
        <mxCell id="BKxvgIfMH9eWLPwgE7mu-13" value="" style="curved=1;endArrow=classic;html=1;rounded=0;exitX=0.48;exitY=0.016;exitDx=0;exitDy=0;exitPerimeter=0;entryX=0.58;entryY=1.047;entryDx=0;entryDy=0;entryPerimeter=0;" edge="1" parent="1" source="BKxvgIfMH9eWLPwgE7mu-11" target="BKxvgIfMH9eWLPwgE7mu-2">
          <mxGeometry width="50" height="50" relative="1" as="geometry">
            <mxPoint x="480" y="350" as="sourcePoint" />
            <mxPoint x="530" y="300" as="targetPoint" />
            <Array as="points" />
          </mxGeometry>
        </mxCell>
        <mxCell id="BKxvgIfMH9eWLPwgE7mu-15" value="" style="curved=1;endArrow=classic;html=1;rounded=0;exitX=0.352;exitY=1.016;exitDx=0;exitDy=0;exitPerimeter=0;entryX=0.596;entryY=-0.078;entryDx=0;entryDy=0;entryPerimeter=0;" edge="1" parent="1" source="BKxvgIfMH9eWLPwgE7mu-2" target="BKxvgIfMH9eWLPwgE7mu-8">
          <mxGeometry width="50" height="50" relative="1" as="geometry">
            <mxPoint x="480" y="350" as="sourcePoint" />
            <mxPoint x="530" y="300" as="targetPoint" />
            <Array as="points">
              <mxPoint x="360" y="70" />
              <mxPoint x="410" y="100" />
              <mxPoint x="430" y="410" />
              <mxPoint x="410" y="450" />
              <mxPoint x="330" y="450" />
            </Array>
          </mxGeometry>
        </mxCell>
        <mxCell id="BKxvgIfMH9eWLPwgE7mu-16" value="" style="curved=1;endArrow=classic;html=1;rounded=0;entryX=0.392;entryY=0.059;entryDx=0;entryDy=0;entryPerimeter=0;" edge="1" parent="1" target="BKxvgIfMH9eWLPwgE7mu-9">
          <mxGeometry width="50" height="50" relative="1" as="geometry">
            <mxPoint x="220" y="40" as="sourcePoint" />
            <mxPoint x="560" y="520" as="targetPoint" />
            <Array as="points">
              <mxPoint x="580" y="100" />
              <mxPoint x="560" y="520" />
              <mxPoint x="480" y="530" />
              <mxPoint x="320" y="530" />
              <mxPoint x="278" y="530" />
            </Array>
          </mxGeometry>
        </mxCell>
        <mxCell id="BKxvgIfMH9eWLPwgE7mu-17" value="" style="curved=1;endArrow=classic;html=1;rounded=0;entryX=0.383;entryY=-0.078;entryDx=0;entryDy=0;entryPerimeter=0;" edge="1" parent="1" target="BKxvgIfMH9eWLPwgE7mu-12">
          <mxGeometry width="50" height="50" relative="1" as="geometry">
            <mxPoint x="220" y="40" as="sourcePoint" />
            <mxPoint x="750" y="550" as="targetPoint" />
            <Array as="points">
              <mxPoint x="620" y="120" />
              <mxPoint x="780" y="590" />
              <mxPoint x="700" y="610" />
              <mxPoint x="490" y="610" />
              <mxPoint x="290" y="610" />
            </Array>
          </mxGeometry>
        </mxCell>
        <mxCell id="BKxvgIfMH9eWLPwgE7mu-20" value="" style="endArrow=classic;html=1;rounded=0;exitX=0.832;exitY=0.984;exitDx=0;exitDy=0;exitPerimeter=0;entryX=0.794;entryY=-0.016;entryDx=0;entryDy=0;entryPerimeter=0;" edge="1" parent="1" source="BKxvgIfMH9eWLPwgE7mu-6" target="BKxvgIfMH9eWLPwgE7mu-7">
          <mxGeometry width="50" height="50" relative="1" as="geometry">
            <mxPoint x="480" y="380" as="sourcePoint" />
            <mxPoint x="530" y="330" as="targetPoint" />
          </mxGeometry>
        </mxCell>
        <mxCell id="BKxvgIfMH9eWLPwgE7mu-21" value="" style="curved=1;endArrow=classic;html=1;rounded=0;exitX=0.511;exitY=0.078;exitDx=0;exitDy=0;exitPerimeter=0;entryX=0.825;entryY=0.984;entryDx=0;entryDy=0;entryPerimeter=0;" edge="1" parent="1" source="BKxvgIfMH9eWLPwgE7mu-5" target="BKxvgIfMH9eWLPwgE7mu-11">
          <mxGeometry width="50" height="50" relative="1" as="geometry">
            <mxPoint x="480" y="380" as="sourcePoint" />
            <mxPoint x="330" y="140" as="targetPoint" />
            <Array as="points">
              <mxPoint x="310" y="210" />
            </Array>
          </mxGeometry>
        </mxCell>
        <mxCell id="BKxvgIfMH9eWLPwgE7mu-22" value="" style="curved=1;endArrow=classic;html=1;rounded=0;exitX=0.471;exitY=0.922;exitDx=0;exitDy=0;exitPerimeter=0;entryX=0.817;entryY=0.016;entryDx=0;entryDy=0;entryPerimeter=0;" edge="1" parent="1" source="BKxvgIfMH9eWLPwgE7mu-11" target="BKxvgIfMH9eWLPwgE7mu-5">
          <mxGeometry width="50" height="50" relative="1" as="geometry">
            <mxPoint x="480" y="380" as="sourcePoint" />
            <mxPoint x="530" y="330" as="targetPoint" />
            <Array as="points">
              <mxPoint x="320" y="140" />
            </Array>
          </mxGeometry>
        </mxCell>
        <mxCell id="BKxvgIfMH9eWLPwgE7mu-23" value="" style="curved=1;endArrow=classic;html=1;rounded=0;exitX=0.825;exitY=1.047;exitDx=0;exitDy=0;exitPerimeter=0;" edge="1" parent="1" source="BKxvgIfMH9eWLPwgE7mu-4">
          <mxGeometry width="50" height="50" relative="1" as="geometry">
            <mxPoint x="300" y="201.88" as="sourcePoint" />
            <mxPoint x="490" y="50" as="targetPoint" />
            <Array as="points">
              <mxPoint x="360" y="202" />
              <mxPoint x="460.53" y="140" />
            </Array>
          </mxGeometry>
        </mxCell>
        <mxCell id="BKxvgIfMH9eWLPwgE7mu-24" value="" style="curved=1;endArrow=classic;html=1;rounded=0;entryX=0.839;entryY=0.109;entryDx=0;entryDy=0;entryPerimeter=0;" edge="1" parent="1" target="BKxvgIfMH9eWLPwgE7mu-8">
          <mxGeometry width="50" height="50" relative="1" as="geometry">
            <mxPoint x="260" y="200" as="sourcePoint" />
            <mxPoint x="500" y="60" as="targetPoint" />
            <Array as="points">
              <mxPoint x="370" y="212" />
              <mxPoint x="420" y="240" />
            </Array>
          </mxGeometry>
        </mxCell>
        <mxCell id="BKxvgIfMH9eWLPwgE7mu-25" value="" style="curved=1;endArrow=classic;html=1;rounded=0;entryX=0.578;entryY=-0.066;entryDx=0;entryDy=0;entryPerimeter=0;" edge="1" parent="1" target="BKxvgIfMH9eWLPwgE7mu-9">
          <mxGeometry width="50" height="50" relative="1" as="geometry">
            <mxPoint x="260" y="200" as="sourcePoint" />
            <mxPoint x="463" y="494" as="targetPoint" />
            <Array as="points">
              <mxPoint x="520" y="220" />
              <mxPoint x="680" y="540" />
              <mxPoint x="480" y="540" />
            </Array>
          </mxGeometry>
        </mxCell>
        <mxCell id="BKxvgIfMH9eWLPwgE7mu-27" value="" style="curved=1;endArrow=classic;html=1;rounded=0;entryX=0.586;entryY=-0.047;entryDx=0;entryDy=0;entryPerimeter=0;" edge="1" parent="1" target="BKxvgIfMH9eWLPwgE7mu-12">
          <mxGeometry width="50" height="50" relative="1" as="geometry">
            <mxPoint x="260" y="200" as="sourcePoint" />
            <mxPoint x="430" y="582" as="targetPoint" />
            <Array as="points">
              <mxPoint x="540" y="230" />
              <mxPoint x="800" y="600" />
              <mxPoint x="490" y="620" />
              <mxPoint x="440" y="620" />
            </Array>
          </mxGeometry>
        </mxCell>
      </root>
    </mxGraphModel>
  </diagram>
</mxfile>
